<svg version="1.0" xmlns="http://www.w3.org/2000/svg"
 width="64.000000pt" height="64.000000pt" viewBox="0 0 64.000000 64.000000"
 preserveAspectRatio="xMidYMid meet">
<g transform="translate(0.000000,64.000000) scale(0.100000,-0.100000)"
fill="#000000" stroke="none">
<path d="M223 612 c-214 -76 -280 -333 -128 -500 117 -131 333 -131 450 0 58
63 80 120 80 208 0 88 -22 145 -80 208 -78 87 -215 122 -322 84z m335 -244 c3
-65 2 -68 -20 -69 -17 -1 -18 -3 -5 -6 18 -5 24 -23 8 -23 -5 0 -22 -13 -38
-30 -40 -43 -83 -36 -83 15 0 14 -3 16 -8 7 -6 -9 -34 -12 -103 -10 -86 3 -95
1 -104 -17 -15 -28 -50 -31 -72 -6 -9 12 -24 21 -31 21 -20 0 -5 75 24 122 20
32 30 38 59 38 l34 0 3 -57 3 -58 90 -1 90 0 -87 3 -88 4 0 70 0 69 163 -2
162 -3 3 -67z"/>
<path d="M136 375 c-9 -26 -7 -32 5 -12 6 10 9 21 6 23 -2 3 -7 -2 -11 -11z"/>
<path d="M160 370 c-9 -18 -8 -20 15 -20 18 0 25 5 25 20 0 11 -7 20 -15 20
-8 0 -19 -9 -25 -20z"/>
<path d="M157 264 c-8 -8 1 -24 14 -24 5 0 9 7 9 15 0 15 -12 20 -23 9z"/>
<path d="M450 255 c0 -8 5 -15 10 -15 6 0 10 7 10 15 0 8 -4 15 -10 15 -5 0
-10 -7 -10 -15z"/>
</g>
</svg>
